# File created by Blade
# Date/Time:  Thu Sep 25 18:58:07 2014
# Frame Rate: 120.000 fps
#------------------------------------------------------
:FULLY-SPECIFIED
:DEGREES
2148
root 1.574979 32.887687 0.082890 5.452779 1.191439 -0.287976
Spine -7.582534 5.519681 -0.733339
Head -12.948919 -8.871756 10.404829
LeftShoulder 9.063777 -18.947918 34.005083
LeftArm 82.623321 -2.790479 -54.327273
LeftForeArm 1.749844 -0.000000 21.428102
LeftHand -22.790924 -0.000000 -12.230536
LeftHandThumb1 -26.253704 0.000000 33.147579
RightShoulder 4.697408 37.992853 -24.797467
RightArm 44.499613 -10.835987 64.835657
RightForeArm -30.896523 0.000000 15.789650
RightHand -2.109159 -0.000000 18.923462
RightHandThumb1 -24.326973 -0.000000 -32.862282
LeftUpLeg -1.648609 11.256358 3.792464
LeftLeg -3.656941 -0.000000 0.000000
LeftFoot -3.491571 -4.250020 -17.795916
LeftToeBase 8.897077 -0.000000 -0.000000
RightUpLeg -1.969420 -11.874610 -6.240129
RightLeg -0.724188 -0.000000 0.000000
RightFoot -2.272249 -0.363709 3.305743
RightToeBase -2.838396 -0.000000 0.000000
2149
root 1.580202 32.886973 0.082707 5.436372 1.157102 -0.277199
Spine -7.527177 5.338701 -0.599192
Head -13.053055 -8.570126 10.112606
LeftShoulder 9.121025 -18.721984 34.254799
LeftArm 83.994876 -2.639937 -54.536645
LeftForeArm 1.720291 -0.000000 21.601781
LeftHand -23.029369 -0.000000 -12.337534
LeftHandThumb1 -26.253704 0.000000 33.147579
RightShoulder 5.444185 38.528493 -24.639022
RightArm 44.862245 -11.113486 65.838219
RightForeArm -30.987349 0.000000 15.831624
RightHand -2.189979 -0.000000 18.759018
RightHandThumb1 -24.326973 -0.000000 -32.862282
LeftUpLeg -1.631814 11.196075 3.771391
LeftLeg -3.632791 -0.000000 0.000000
LeftFoot -3.569880 -4.130436 -17.850909
LeftToeBase 8.926044 -0.000000 -0.000000
RightUpLeg -1.958451 -11.852765 -6.266730
RightLeg -0.723467 -0.000000 0.000000
RightFoot -2.276461 -0.350978 3.299666
RightToeBase -2.812835 -0.000000 0.000000
2150
root 1.583988 32.888303 0.083611 5.425693 1.121634 -0.280535
Spine -7.475303 5.234197 -0.489041
Head -13.183253 -8.329919 9.919735
LeftShoulder 9.213353 -19.148718 34.482866
LeftArm 84.844673 -2.081084 -54.774284
LeftForeArm 1.681153 -0.000000 21.715004
LeftHand -23.188674 -0.000000 -12.334698
LeftHandThumb1 -26.253704 0.000000 33.147579
RightShoulder 6.054274 38.942860 -24.478677
RightArm 45.301834 -11.446008 66.709275
RightForeArm -31.194660 -0.000000 15.957631
RightHand -2.149823 -0.000000 18.885440
RightHandThumb1 -24.326973 -0.000000 -32.862282
LeftUpLeg -1.621164 11.193922 3.774075
LeftLeg -3.624846 -0.000000 0.000000
LeftFoot -3.572286 -4.130529 -17.784855
LeftToeBase 8.994984 -0.000000 -0.000000
RightUpLeg -1.948248 -11.823738 -6.274153
RightLeg -0.736574 -0.000000 0.000000
RightFoot -2.257775 -0.339673 3.330398
RightToeBase -2.735661 -0.000000 0.000000
2151
root 1.588844 32.889320 0.084209 5.425571 1.075141 -0.276893
Spine -7.418956 5.149274 -0.394547
Head -13.377702 -8.108122 9.750243
LeftShoulder 9.255556 -19.641662 34.672679
LeftArm 85.706556 -1.434731 -54.821480
LeftForeArm 1.795075 -0.000000 21.603226
LeftHand -22.725744 0.000000 -12.363420
LeftHandThumb1 -26.253704 0.000000 33.147579
RightShoulder 6.573951 39.315045 -24.347349
RightArm 45.842790 -11.893395 67.469871
RightForeArm -31.325509 -0.000000 16.106368
RightHand -2.279637 -0.000000 18.805055
RightHandThumb1 -24.326973 -0.000000 -32.862282
LeftUpLeg -1.623210 11.172949 3.762855
LeftLeg -3.601775 -0.000000 0.000000
LeftFoot -3.601068 -4.070483 -17.787709
LeftToeBase 8.995111 -0.000000 -0.000000
RightUpLeg -1.961110 -11.800613 -6.287500
RightLeg -0.728973 -0.000000 0.000000
RightFoot -2.230215 -0.314725 3.341884
RightToeBase -2.808675 -0.000000 0.000000
2152
root 1.593971 32.890986 0.084842 5.441242 1.030498 -0.267053
Spine -7.396285 5.072050 -0.314535
Head -13.527033 -7.930526 9.589095
LeftShoulder 9.330296 -20.260015 34.855789
LeftArm 86.402498 -0.717223 -54.827192
LeftForeArm 1.927967 -0.000000 21.707312
LeftHand -22.443793 -0.000000 -12.713370
LeftHandThumb1 -26.253704 0.000000 33.147579
RightShoulder 7.116264 39.714526 -24.143131
RightArm 46.416384 -12.467343 68.137329
RightForeArm -31.664543 -0.000000 16.162863
RightHand -2.244430 -0.000000 18.848475
RightHandThumb1 -24.326973 -0.000000 -32.862282
LeftUpLeg -1.643153 11.136884 3.734714
LeftLeg -3.562845 -0.000000 0.000000
LeftFoot -3.654098 -3.954385 -17.844694
LeftToeBase 8.966865 -0.000000 -0.000000
RightUpLeg -1.991498 -11.765056 -6.306711
RightLeg -0.715060 -0.000000 0.000000
RightFoot -2.208957 -0.310613 3.346630
RightToeBase -2.841805 -0.000000 0.000000
2153
root 1.597316 32.892204 0.087163 5.455228 0.968781 -0.272648
Spine -7.377673 4.964601 -0.214231
Head -13.654902 -7.695204 9.425370
LeftShoulder 9.389457 -20.981713 35.014291
LeftArm 86.964720 0.053956 -54.780320
LeftForeArm 2.113355 -0.000000 21.782130
LeftHand -22.226000 -0.000000 -12.878525
LeftHandThumb1 -26.253704 0.000000 33.147579
RightShoulder 7.691811 40.151851 -23.936981
RightArm 46.925760 -13.055286 68.810520
RightForeArm -32.263863 -0.000000 16.314316
RightHand -2.309773 -0.000000 18.868000
RightHandThumb1 -24.326973 -0.000000 -32.862282
LeftUpLeg -1.649327 11.159954 3.737794
LeftLeg -3.559257 -0.000000 0.000000
LeftFoot -3.653024 -3.960301 -17.771697
LeftToeBase 8.969682 -0.000000 -0.000000
RightUpLeg -2.018296 -11.742467 -6.305735
RightLeg -0.709073 -0.000000 0.000000
RightFoot -2.198748 -0.276622 3.361808
RightToeBase -2.828943 -0.000000 0.000000
2154
root 1.600891 32.893392 0.090035 5.470807 0.906467 -0.271631
Spine -7.362126 4.901054 -0.135541
Head -13.793658 -7.467220 9.310408
LeftShoulder 9.507220 -21.922517 35.238238
LeftArm 87.296975 0.914541 -54.937057
LeftForeArm 2.595230 0.000000 21.885485
LeftHand -22.023825 -0.000000 -13.084619
LeftHandThumb1 -26.253704 0.000000 33.147579
RightShoulder 8.229869 40.593151 -23.753810
RightArm 47.461479 -13.778221 69.263817
RightForeArm -32.509706 0.000000 16.434040
RightHand -2.318871 -0.000000 18.777552
RightHandThumb1 -24.326973 -0.000000 -32.862282
LeftUpLeg -1.659587 11.179285 3.727063
LeftLeg -3.540282 -0.000000 0.000000
LeftFoot -3.659978 -3.928752 -17.760623
LeftToeBase 8.890979 -0.000000 -0.000000
RightUpLeg -2.050955 -11.717574 -6.310868
RightLeg -0.693840 -0.000000 0.000000
RightFoot -2.183786 -0.252091 3.353231
RightToeBase -2.806161 -0.000000 0.000000
2155
root 1.604912 32.894867 0.094030 5.484562 0.834990 -0.275199
Spine -7.357382 4.874572 -0.060304
Head -13.896726 -7.290196 9.204608
LeftShoulder 9.727210 -22.673612 35.384255
LeftArm 87.763776 1.609022 -54.998353
LeftForeArm 2.995576 0.000000 21.904057
LeftHand -21.800262 -0.000000 -13.163625
LeftHandThumb1 -26.253704 0.000000 33.147579
RightShoulder 8.741192 40.955845 -23.605061
RightArm 48.029361 -14.419159 69.764454
RightForeArm -32.610374 -0.000000 16.524858
RightHand -2.188633 -0.000000 18.957472
RightHandThumb1 -24.326973 -0.000000 -32.862282
LeftUpLeg -1.657684 11.211026 3.718515
LeftLeg -3.530495 -0.000000 0.000000
LeftFoot -3.695081 -3.884061 -17.750743
LeftToeBase 8.902871 -0.000000 -0.000000
RightUpLeg -2.075902 -11.689656 -6.313448
RightLeg -0.691473 -0.000000 0.000000
RightFoot -2.154032 -0.219685 3.340686
RightToeBase -2.823608 -0.000000 0.000000
2156
root 1.610305 32.896404 0.099018 5.489572 0.756674 -0.266319
Spine -7.360746 4.839429 0.005132
Head -13.926072 -7.106949 9.076407
LeftShoulder 9.998154 -23.223894 35.494226
LeftArm 88.286764 2.157146 -55.021260
LeftForeArm 3.134922 -0.000000 22.137242
LeftHand -22.166117 0.000000 -13.551432
LeftHandThumb1 -26.253704 0.000000 33.147579
RightShoulder 9.314903 41.513238 -23.439669
RightArm 48.306009 -14.995713 70.479628
RightForeArm -32.714629 0.000000 16.651478
RightHand -2.167074 -0.000000 18.978976
RightHandThumb1 -24.326973 -0.000000 -32.862282
LeftUpLeg -1.640723 11.250662 3.696934
LeftLeg -3.528692 -0.000000 0.000000
LeftFoot -3.704948 -3.854557 -17.748064
LeftToeBase 8.943284 -0.000000 -0.000000
RightUpLeg -2.092609 -11.663632 -6.334103
RightLeg -0.685052 -0.000000 0.000000
RightFoot -2.135338 -0.173728 3.342901
RightToeBase -2.820119 -0.000000 0.000000
2157
root 1.613429 32.898396 0.105030 5.496719 0.692616 -0.266255
Spine -7.359575 4.798430 0.085796
Head -13.972356 -6.911766 8.919309
LeftShoulder 10.298659 -23.866411 35.570109
LeftArm 88.675944 2.753022 -55.261465
LeftForeArm 3.495909 -0.000000 22.288849
LeftHand -23.344949 -0.000000 -13.627007
LeftHandThumb1 -26.253704 0.000000 33.147579
RightShoulder 9.971401 42.001047 -23.197886
RightArm 48.639995 -15.557890 71.055784
RightForeArm -32.455517 -0.000000 16.744808
RightHand -1.902963 0.000000 18.931679
RightHandThumb1 -24.326973 -0.000000 -32.862282
LeftUpLeg -1.627893 11.264137 3.690408
LeftLeg -3.524618 -0.000000 0.000000
LeftFoot -3.730723 -3.806004 -17.741510
LeftToeBase 8.957010 -0.000000 -0.000000
RightUpLeg -2.098464 -11.653134 -6.340884
RightLeg -0.696262 -0.000000 0.000000
RightFoot -2.118071 -0.117656 3.368747
RightToeBase -2.777931 -0.000000 0.000000
2158
root 1.617174 32.900118 0.110612 5.503647 0.624975 -0.264945
Spine -7.347797 4.762162 0.162343
Head -14.042070 -6.718328 8.780877
LeftShoulder 10.549287 -24.516669 35.632336
LeftArm 89.114979 3.360854 -55.238508
LeftForeArm 3.434333 -0.000000 22.373890
LeftHand -23.797902 -0.000000 -13.582741
LeftHandThumb1 -26.253704 0.000000 33.147579
RightShoulder 10.486845 42.467283 -23.064860
RightArm 48.972298 -16.077963 71.733582
RightForeArm -32.104641 -0.000000 16.872713
RightHand -2.048039 -0.000000 18.919476
RightHandThumb1 -24.326973 -0.000000 -32.862282
LeftUpLeg -1.615376 11.281105 3.680992
LeftLeg -3.520743 -0.000000 0.000000
LeftFoot -3.729308 -3.755266 -17.733754
LeftToeBase 8.874721 -0.000000 -0.000000
RightUpLeg -2.107909 -11.618774 -6.351403
RightLeg -0.702901 -0.000000 0.000000
RightFoot -2.078365 -0.091499 3.368319
RightToeBase -2.835558 -0.000000 0.000000
2159
root 1.622222 32.902248 0.116667 5.511567 0.564914 -0.260883
Spine -7.335375 4.753556 0.224573
Head -14.106107 -6.527047 8.670837
LeftShoulder 10.848171 -25.211177 35.714374
LeftArm 89.321187 3.992323 -55.653911
LeftForeArm 3.634090 -0.000000 22.712300
LeftHand -23.475478 0.000000 -14.114730
LeftHandThumb1 -26.253704 0.000000 33.147579
RightShoulder 10.915778 42.887906 -22.961557
RightArm 49.359863 -16.593730 72.443719
RightForeArm -31.921266 -0.000000 16.963354
RightHand -2.045449 -0.000000 18.807568
RightHandThumb1 -24.326973 -0.000000 -32.862282
LeftUpLeg -1.604595 11.300083 3.665450
LeftLeg -3.513813 -0.000000 0.000000
LeftFoot -3.762508 -3.724024 -17.756319
LeftToeBase 8.935112 -0.000000 -0.000000
RightUpLeg -2.120073 -11.613770 -6.365387
RightLeg -0.700328 -0.000000 0.000000
RightFoot -2.051607 -0.041861 3.363237
RightToeBase -2.859303 -0.000000 0.000000
2160
root 1.625968 32.903133 0.123041 5.527934 0.512225 -0.264156
Spine -7.322767 4.745275 0.307420
Head -14.201600 -6.346517 8.524109
LeftShoulder 11.105629 -25.939649 35.759872
LeftArm 89.653276 4.699959 -55.915975
LeftForeArm 3.562777 -0.000000 22.697399
LeftHand -23.667757 0.000000 -13.881825
LeftHandThumb1 -26.253704 0.000000 33.147579
RightShoulder 11.294699 43.303699 -22.921581
RightArm 49.737573 -17.106124 73.167086
RightForeArm -31.785642 -0.000000 17.140559
RightHand -2.022273 0.000000 18.916074
RightHandThumb1 -24.326973 -0.000000 -32.862282
LeftUpLeg -1.600677 11.317376 3.658722
LeftLeg -3.509996 -0.000000 0.000000
LeftFoot -3.776391 -3.695631 -17.794111
LeftToeBase 8.933054 -0.000000 -0.000000
RightUpLeg -2.132149 -11.587511 -6.371207
RightLeg -0.708097 -0.000000 0.000000
RightFoot -2.037064 -0.012779 3.377581
RightToeBase -2.835636 -0.000000 0.000000
